<svg width="960" height="240" viewBox="0 0 960 240" fill="none" xmlns="http://www.w3.org/2000/svg">
<g clip-path="url(#clip0)">
<path d="M278.754 120.214C284.352 115.401 287.182 109.494 287.182 102.64C287.182 95.7854 284.352 89.9182 278.754 85.0649C272.925 80.192 265.732 77.6568 258.386 77.8864H210.067C208.003 77.8325 205.986 78.5586 204.357 79.9413C203.633 80.497 203.04 81.2312 202.626 82.0839C202.212 82.9367 201.989 83.884 201.974 84.8486V156.147C201.989 157.112 202.212 158.059 202.626 158.912C203.04 159.765 203.633 160.499 204.357 161.055C205.992 162.418 208.009 163.125 210.067 163.055C212.127 163.107 214.14 162.382 215.764 161C216.477 160.448 217.06 159.721 217.468 158.878C217.875 158.035 218.095 157.1 218.11 156.147V133.909L274.931 162.122C276.229 162.797 277.652 163.135 279.09 163.109C281.166 163.178 283.2 162.451 284.836 161.055C285.552 160.494 286.138 159.758 286.546 158.905C286.953 158.053 287.171 157.108 287.182 156.147C287.166 155.175 286.943 154.221 286.529 153.359C286.116 152.498 285.523 151.754 284.799 151.186C284.092 150.633 283.325 150.179 282.515 149.834L237.472 127.46H258.386C265.738 127.664 272.93 125.105 278.754 120.214ZM258.386 113.536H218.11V91.8109H258.386C261.614 91.7063 264.774 92.8296 267.323 94.9878C268.459 95.851 269.388 97.0005 270.029 98.3387C270.67 99.6769 271.006 101.164 271.006 102.673C271.006 104.183 270.67 105.67 270.029 107.008C269.388 108.346 268.459 109.496 267.323 110.359C264.774 112.517 261.614 113.64 258.386 113.536Z" fill="white"/>
<path d="M385.009 91.8118C387.073 91.8636 389.089 91.1377 390.718 89.7569C391.442 89.2005 392.034 88.4662 392.448 87.6135C392.863 86.7609 393.086 85.814 393.101 84.8496C393.087 83.885 392.864 82.9377 392.45 82.0849C392.036 81.2321 391.443 80.498 390.718 79.9422C389.088 78.5635 387.072 77.8379 385.009 77.8874H315.974C313.914 77.8355 311.902 78.5615 310.277 79.9422C309.551 80.4956 308.956 81.2293 308.541 82.0826C308.127 82.9359 307.905 83.8844 307.894 84.8496V156.148C307.905 157.114 308.127 158.062 308.541 158.915C308.956 159.769 309.551 160.502 310.277 161.056C311.908 162.417 313.92 163.124 315.974 163.057H385.009C387.073 163.108 389.089 162.382 390.718 161.002C391.453 160.457 392.054 159.726 392.47 158.87C392.886 158.015 393.103 157.062 393.103 156.094C393.103 155.126 392.886 154.173 392.47 153.318C392.054 152.463 391.453 151.731 390.718 151.187C389.088 149.808 387.072 149.083 385.009 149.132H324.067V127.461H371.232C373.291 127.513 375.304 126.787 376.929 125.406C377.663 124.862 378.265 124.13 378.68 123.275C379.096 122.42 379.313 121.467 379.313 120.499C379.313 119.531 379.096 118.578 378.68 117.723C378.265 116.867 377.663 116.136 376.929 115.592C375.304 114.211 373.291 113.485 371.232 113.537H324.067V91.8118H385.009Z" fill="white"/>
<path d="M494.764 151.237C493.14 149.856 491.127 149.13 489.067 149.182H428.112V84.8454C428.099 83.8807 427.876 82.933 427.462 82.08C427.047 81.227 426.454 80.493 425.729 79.9381C424.08 78.6047 422.08 77.8848 420.026 77.8848C417.972 77.8848 415.972 78.6047 414.323 79.9381C413.599 80.4938 413.005 81.228 412.591 82.0808C412.177 82.9336 411.954 83.8809 411.939 84.8454V156.144C411.954 157.108 412.177 158.056 412.591 158.909C413.005 159.762 413.599 160.496 414.323 161.052C415.95 162.434 417.968 163.16 420.032 163.107H489.067C491.127 163.158 493.14 162.432 494.764 161.052C495.499 160.508 496.1 159.776 496.516 158.921C496.931 158.065 497.148 157.112 497.148 156.144C497.148 155.177 496.931 154.224 496.516 153.368C496.1 152.513 495.499 151.781 494.764 151.237Z" fill="white"/>
<path d="M691.294 79.942C689.674 78.5721 687.673 77.847 685.622 77.8871H616.55C614.487 77.8377 612.47 78.5633 610.84 79.942C610.118 80.4984 609.526 81.2331 609.115 82.0859C608.702 82.9388 608.482 83.8857 608.47 84.8493C608.482 85.8128 608.704 86.7593 609.116 87.612C609.528 88.4647 610.119 89.1996 610.84 89.7567C612.47 91.1375 614.486 91.8633 616.55 91.8116H642.975V156.148C642.989 157.112 643.212 158.06 643.626 158.913C644.041 159.766 644.634 160.5 645.358 161.056C647.009 162.39 649.011 163.111 651.067 163.111C653.124 163.111 655.126 162.39 656.776 161.056C657.5 160.499 658.093 159.765 658.507 158.912C658.921 158.059 659.145 157.112 659.16 156.148V91.8116H685.622C687.685 91.8633 689.702 91.1375 691.331 89.7567C692.053 89.1996 692.644 88.4647 693.056 87.612C693.468 86.7593 693.689 85.8128 693.702 84.8493C693.686 83.8822 693.459 82.933 693.041 82.0799C692.622 81.2267 692.024 80.494 691.294 79.942Z" fill="white"/>
<path d="M724.653 79.9381C723.003 78.6047 721.004 77.8848 718.949 77.8848C716.896 77.8848 714.896 78.6047 713.246 79.9381C712.522 80.4938 711.929 81.228 711.515 82.0808C711.101 82.9336 710.877 83.8809 710.864 84.8454V156.144C710.877 157.108 711.101 158.056 711.515 158.909C711.929 159.762 712.522 160.496 713.246 161.052C714.896 162.385 716.896 163.105 718.949 163.105C721.004 163.105 723.003 162.385 724.653 161.052C725.379 160.498 725.974 159.764 726.388 158.911C726.803 158.058 727.025 157.109 727.036 156.144V84.8454C727.023 83.8807 726.8 82.933 726.386 82.08C725.972 81.227 725.378 80.493 724.653 79.9381Z" fill="white"/>
<path d="M832.404 84.8456C832.39 83.881 832.167 82.9337 831.753 82.0809C831.339 81.2281 830.745 80.4939 830.021 79.9382C828.373 78.6131 826.379 77.8982 824.33 77.8982C822.282 77.8982 820.288 78.6131 818.64 79.9382C817.706 80.6742 816.993 81.695 816.592 82.8718L789.869 138.272L762.724 82.0201L762.352 81.3847H762.29C761.936 80.8339 761.519 80.3343 761.049 79.8976C759.391 78.5324 757.355 77.822 755.277 77.8833C753.217 77.8314 751.204 78.5575 749.58 79.9382C748.854 80.4916 748.259 81.2252 747.845 82.0785C747.431 82.9319 747.208 83.8803 747.197 84.8456C747.191 85.9709 747.493 87.0726 748.066 88.0089L781.938 158.024L782.062 158.24C782.495 159.353 783.204 160.312 784.11 161.011C785.723 162.404 787.737 163.127 789.795 163.053C791.873 163.097 793.902 162.362 795.541 160.97C796.328 160.318 796.965 159.476 797.403 158.51H797.54L832.069 87.1438L832.404 86.0934L832.379 85.7919C832.41 85.4776 832.418 85.1613 832.404 84.8456Z" fill="white"/>
<path d="M934.067 151.236C932.443 149.855 930.431 149.13 928.373 149.181H867.415V127.456H914.58C916.645 127.508 918.663 126.782 920.293 125.401C921.023 124.857 921.628 124.126 922.042 123.27C922.456 122.415 922.673 121.462 922.673 120.494C922.673 119.526 922.456 118.573 922.042 117.718C921.628 116.863 921.023 116.131 920.293 115.587C918.663 114.206 916.645 113.48 914.58 113.532H867.415V91.8069H928.373C930.431 91.8589 932.443 91.1328 934.067 89.752C934.783 89.1898 935.369 88.4529 935.77 87.6006C936.177 86.7483 936.394 85.8044 936.401 84.8447C936.388 83.8795 936.171 82.931 935.756 82.0777C935.342 81.2244 934.744 80.4907 934.021 79.9373C932.41 78.5684 930.411 77.8431 928.373 77.8825H859.336C857.271 77.8285 855.253 78.5546 853.629 79.9373C852.906 80.4931 852.308 81.2272 851.893 82.08C851.479 82.9328 851.256 83.8801 851.242 84.8447V156.143C851.256 157.108 851.479 158.056 851.893 158.908C852.308 159.761 852.906 160.495 853.629 161.051C855.253 162.434 857.271 163.159 859.336 163.105H928.373C930.431 163.157 932.443 162.432 934.067 161.051C934.803 160.506 935.401 159.775 935.822 158.919C936.236 158.064 936.453 157.111 936.453 156.143C936.453 155.176 936.236 154.222 935.822 153.367C935.401 152.512 934.803 151.78 934.067 151.236Z" fill="white"/>
<path d="M561.733 82.9698L561.596 82.7535C561.159 81.6656 560.454 80.7301 559.56 80.0497C557.963 78.6137 555.947 77.8466 553.876 77.8867C551.798 77.8422 549.769 78.5772 548.129 79.9686C547.343 80.6212 546.705 81.4633 546.268 82.429H546.131L511.638 153.849L511.328 154.815L511.328 155.269C511.288 155.56 511.267 155.853 511.266 156.148C511.28 157.112 511.503 158.059 511.918 158.912C512.332 159.765 512.925 160.499 513.649 161.055C515.297 162.38 517.292 163.095 519.34 163.095C521.388 163.095 523.383 162.38 525.031 161.055C525.964 160.319 526.677 159.298 527.079 158.121L553.801 102.694L580.909 159L581.282 159.635H581.343C581.7 160.184 582.117 160.683 582.585 161.123C584.254 162.456 586.287 163.137 588.356 163.056C590.416 163.108 592.429 162.382 594.053 161.001C594.779 160.448 595.374 159.714 595.789 158.861C596.203 158.007 596.425 157.059 596.436 156.094C596.443 154.968 596.14 153.866 595.567 152.93L561.733 82.9698Z" fill="white"/>
</g>
<g clip-path="url(#clip1)">
<path d="M108.311 126.236L91.6861 156.875L74.9863 126.164L67.6428 139.362L82.3297 166.333C82.7398 167.052 83.1125 167.772 83.5226 168.491L84.2309 169.749C84.38 170.001 84.4917 170.253 84.6408 170.469C85.0509 171.26 85.4236 171.943 85.9082 172.483C87.2129 173.993 89.375 174.964 91.5742 174.964C92.0588 174.964 92.5434 174.928 92.9907 174.856C93.9226 174.712 94.8545 174.353 95.7866 173.813C96.4203 173.454 96.9793 172.878 97.6876 171.871C99.1041 169.929 100.222 167.843 101.415 165.614L102.086 164.355L115.729 139.254L108.311 126.236Z" fill="white"/>
<path d="M71.0722 119.008L44.9041 70.8548H44.8668L43.7858 68.9848C43.4876 68.4454 43.0403 67.9419 42.4439 67.4385C41.0646 66.4675 39.5736 66 37.7098 66C35.8459 66 34.3549 66.4675 32.9756 67.5104C31.6337 68.5533 31 69.7041 31 71.1425C31 72.0056 31.2237 72.7968 31.7083 73.48L31.7828 73.5879L63.4678 131.702L71.0722 119.008Z" fill="white"/>
<path d="M150.135 67.5104C148.794 66.4675 147.265 66 145.401 66C143.538 66 142.047 66.4675 140.742 67.4744C139.81 68.1577 139.251 68.8769 139.027 69.6681L138.953 69.8839L112.225 119.079L119.867 131.702L151.403 73.6598L151.776 72.7608C151.999 72.2573 152.111 71.7179 152.111 71.1066C152.111 69.7041 151.477 68.5533 150.135 67.5104Z" fill="white"/>
<path d="M91.5407 66C93.7399 66 95.902 66.935 97.2067 68.4814C97.6913 69.0568 98.064 69.74 98.4741 70.4952C98.586 70.747 98.7351 70.9987 98.884 71.2144L99.5923 72.4731C100.002 73.1924 100.375 73.9116 100.785 74.6308L151.295 167.412L151.369 167.52C151.854 168.239 152.078 168.994 152.078 169.857C152.078 171.296 151.444 172.447 150.102 173.454C148.76 174.497 147.232 174.964 145.368 174.964C143.504 174.964 142.013 174.497 140.634 173.49C140.037 172.986 139.59 172.483 139.292 171.943L138.211 170.073H138.173L91.466 84.1247L44.1996 171.116L44.125 171.332C43.8641 172.087 43.305 172.806 42.4103 173.526C41.1056 174.532 39.6146 175 37.7508 175C35.8869 175 34.3959 174.532 33.0167 173.49C31.6747 172.447 31.041 171.296 31.041 169.893C31.041 169.282 31.1528 168.743 31.3765 168.239L31.7493 167.34L81.0287 76.6087L81.6997 75.35C82.8926 73.1564 84.0108 71.0346 85.4273 69.0927C86.1356 68.1217 86.6947 67.5464 87.3283 67.1508C88.2976 66.5754 89.1923 66.2517 90.1242 66.1079C90.6088 66.036 91.0561 66 91.5407 66Z" fill="white"/>
</g>
<defs>
<clipPath id="clip0">
<rect width="746.852" height="85.921" fill="white" transform="translate(201.646 77.5606)"/>
</clipPath>
<clipPath id="clip1">
<rect width="121.111" height="109" fill="white" transform="translate(31 66)"/>
</clipPath>
</defs>
</svg>
